<svg xmlns="http://www.w3.org/2000/svg" viewBox="0 0 512 512" fill="none">
  <rect width="512" height="512" rx="112" fill="url(#nightBg)"/>
  <rect x="20" y="20" width="472" height="472" rx="100" fill="url(#nightDepth)" opacity="0.85"/>
  <rect x="14" y="14" width="484" height="484" rx="106" stroke="url(#titaniumEdge)" stroke-width="2.5" fill="none"/>

  <circle cx="142" cy="156" r="3.5" fill="#f8fafc" opacity="0.9"/>
  <circle cx="372" cy="132" r="2.8" fill="#a5f3fc" opacity="0.95"/>
  <circle cx="396" cy="196" r="2.2" fill="#f1f5f9" opacity="0.75"/>
  <circle cx="118" cy="228" r="2" fill="#67e8f9" opacity="0.65"/>
  <circle cx="340" cy="108" r="1.8" fill="#f8fafc" opacity="0.55"/>

  <g transform="translate(256 268) scale(0.5) translate(-256 -268)">
    <ellipse cx="256" cy="268" rx="118" ry="118" fill="url(#moonAura)" opacity="0.5"/>
    <path
      d="M112 292 C148 196 228 136 312 148 C248 168 204 232 204 308 C204 360 232 404 272 430 C196 404 144 340 128 264 C120 228 112 292 112 292Z"
      fill="url(#moonMetal)"
    />
    <path
      d="M256 126 C196 126 146 176 146 236 C146 268 160 296 182 316 C168 292 160 264 160 232 C160 168 204 124 268 124 C292 124 314 132 332 146 C310 134 284 126 256 126Z"
      fill="url(#moonSheen)"
      opacity="0.72"
    />

    <path
      d="M88 318 Q256 196 424 318"
      stroke="url(#orbitCyan)"
      stroke-width="2.2"
      stroke-linecap="round"
      fill="none"
      opacity="0.5"
    />
    <path
      d="M108 352 Q256 268 404 352"
      stroke="url(#orbitCyan)"
      stroke-width="1.4"
      stroke-linecap="round"
      fill="none"
      opacity="0.28"
    />
    <circle cx="256" cy="318" r="3.5" fill="#67e8f9" opacity="0.9"/>
    <circle cx="318" cy="300" r="2.2" fill="#e2e8f0" opacity="0.75"/>
  </g>

  <defs>
    <linearGradient id="nightBg" x1="64" y1="48" x2="448" y2="464">
      <stop stop-color="#2463b0"/>
      <stop offset="0.42" stop-color="#3b82f6"/>
      <stop offset="1" stop-color="#60a5fa"/>
    </linearGradient>
    <radialGradient id="nightDepth" cx="0.5" cy="0.38" r="0.62">
      <stop stop-color="#bfdbfe" stop-opacity="0.55"/>
      <stop offset="0.55" stop-color="#93c5fd" stop-opacity="0.28"/>
      <stop offset="1" stop-color="#2463b0" stop-opacity="0"/>
    </radialGradient>
    <linearGradient id="titaniumEdge" x1="40" y1="40" x2="472" y2="472">
      <stop stop-color="#f8fafc" stop-opacity="0.72"/>
      <stop offset="0.28" stop-color="#94a3b8" stop-opacity="0.42"/>
      <stop offset="0.62" stop-color="#22d3ee" stop-opacity="0.38"/>
      <stop offset="1" stop-color="#e2e8f0" stop-opacity="0.58"/>
    </linearGradient>
    <radialGradient id="moonAura" cx="0.42" cy="0.42" r="0.58">
      <stop stop-color="#e0f2fe" stop-opacity="0.4"/>
      <stop offset="0.65" stop-color="#7dd3fc" stop-opacity="0.16"/>
      <stop offset="1" stop-color="#2463b0" stop-opacity="0"/>
    </radialGradient>
    <linearGradient id="moonMetal" x1="128" y1="136" x2="332" y2="430">
      <stop stop-color="#ffffff"/>
      <stop offset="0.35" stop-color="#dbe4ee"/>
      <stop offset="0.7" stop-color="#94a3b8"/>
      <stop offset="1" stop-color="#64748b"/>
    </linearGradient>
    <linearGradient id="moonSheen" x1="160" y1="124" x2="300" y2="280">
      <stop stop-color="#ffffff" stop-opacity="0.95"/>
      <stop offset="1" stop-color="#cbd5e1" stop-opacity="0"/>
    </linearGradient>
    <linearGradient id="orbitCyan" x1="88" y1="318" x2="424" y2="318">
      <stop stop-color="#22d3ee" stop-opacity="0"/>
      <stop offset="0.5" stop-color="#67e8f9"/>
      <stop offset="1" stop-color="#22d3ee" stop-opacity="0"/>
    </linearGradient>
  </defs>
</svg>
